<svg width="64" height="64" xmlns="http://www.w3.org/2000/svg">

 <title/>
 <g>
  <title>background</title>
  <rect fill="none" id="canvas_background" height="402" width="582" y="-1" x="-1"/>
 </g>
 <g>
  <title>Layer 1</title>
  <path fill="#bf0000" id="svg_1" d="m41.56,32.75a2,2 0 0 0 -1.56,-0.75l-16,0a2,2 0 0 0 -1.56,0.74c-0.35,0.44 -8.44,10.66 -8.44,19.26l0,5a2,2 0 0 0 2,2l8,0a2,2 0 0 0 2,-2l0,-4a17.43,17.43 0 0 1 6,-13.49a17.41,17.41 0 0 1 6,13.49l0,4a2,2 0 0 0 2,2l8,0a2,2 0 0 0 2,-2l0,-5c0,-8.6 -8.09,-18.82 -8.44,-19.25z" class="cls-1"/>
  <path fill="#bf0000" id="svg_2" d="m50,52l0,5a2,2 0 0 1 -2,2l-8,0a2,2 0 0 1 -2,-2l0,-4a17.41,17.41 0 0 0 -6,-13.49l0,-7.51l8,0a2,2 0 0 1 1.56,0.74c0.35,0.44 8.44,10.66 8.44,19.26z" class="cls-2"/>
  <path fill="#9f0000" id="svg_3" d="m60,14.21a4.7,4.7 0 0 0 -6.31,-2.8a48,48 0 0 0 -15.92,8a2,2 0 0 0 -0.77,1.59l0,0l0,13l1,0a2,2 0 0 0 0.76,1.58c9.29,7.23 15.64,8.35 15.9,8.39a1.84,1.84 0 0 0 0.34,0.03c2.08,0 4.19,-0.24 5.22,-3.1c0.87,-2.43 1.78,-8.29 1.78,-13.9a44.81,44.81 0 0 0 -2,-12.79z" class="cls-3"/>
  <path fill="#7f0202" id="svg_5" d="m2,27c0,5.61 0.91,11.47 1.78,13.9c1.03,2.86 3.14,3.1 5.22,3.1a1.84,1.84 0 0 0 0.33,0c0.26,0 6.61,-1.16 15.9,-8.39a2,2 0 0 0 0.77,-1.61l1,0l0,-13l0,0a2,2 0 0 0 -0.79,-1.6a48,48 0 0 0 -15.92,-8a4.7,4.7 0 0 0 -6.29,2.81a44.81,44.81 0 0 0 -2,12.79z" class="cls-4"/>
  <path fill="#9f0000" id="svg_7" d="m41.16,33.48l-1.22,-15.66a6.26,6.26 0 0 0 -5.94,-5.82l-3.8,0c-3,0 -5.58,2.56 -5.95,6l-1.2,15.38a7.57,7.57 0 0 0 1.34,5.16a5.7,5.7 0 0 0 4.61,2.46l6.2,0a5.73,5.73 0 0 0 4.62,-2.46a7.52,7.52 0 0 0 1.34,-5.06z" class="cls-4"/>
  <path fill="#7f0202" id="svg_8" d="m39.82,38.54a5.73,5.73 0 0 1 -4.62,2.46l-3.2,0l0,-29l2,0a6.26,6.26 0 0 1 5.94,5.82l1.22,15.66a7.52,7.52 0 0 1 -1.34,5.06z" class="cls-3"/>
 </g>
</svg>